<svg enable-background="new 0 0 128 128" viewBox="0 0 128 128" xmlns="http://www.w3.org/2000/svg" xmlns:xlink="http://www.w3.org/1999/xlink"><radialGradient id="a" cx="47.842" cy="-368.3088" gradientTransform="matrix(1 0 0 -1 0 -339.3858)" gradientUnits="userSpaceOnUse" r="95.191"><stop offset="0" stop-color="#757575"/><stop offset=".202" stop-color="#686868"/><stop offset=".7063" stop-color="#4c4c4c"/><stop offset="1" stop-color="#424242"/></radialGradient><linearGradient id="b"><stop offset="0" stop-color="#212121"/><stop offset=".2809" stop-color="#242424"/><stop offset=".4902" stop-color="#2d2d2d"/><stop offset=".6764" stop-color="#3e3e3e"/><stop offset=".8481" stop-color="#545454"/><stop offset=".9256" stop-color="#616161"/></linearGradient><radialGradient id="c" cx="247.0742" cy="67.8695" gradientTransform="matrix(.7917 .6109 .6109 -.7917 -217.2148 -32.1975)" gradientUnits="userSpaceOnUse" r="19.126" xlink:href="#b"/><radialGradient id="d" cx="98.4592" cy="-357.0478" gradientTransform="matrix(.9932 .1164 .1164 -.9932 -22.7117 -276.7319)" gradientUnits="userSpaceOnUse" r="13.252" xlink:href="#b"/><radialGradient id="e" cx="54.9249" cy="-469.8757" gradientTransform="matrix(1.1053 .1295 .0955 -.815 40.3442 -293.326)" gradientUnits="userSpaceOnUse" r="17.206" xlink:href="#b"/><radialGradient id="f" cx="70.4683" cy="19.6369" gradientUnits="userSpaceOnUse" r="71.8744"><stop offset=".282" stop-color="#fff157"/><stop offset=".5225" stop-color="#feee54"/><stop offset=".7208" stop-color="#fae44a"/><stop offset=".9035" stop-color="#f4d538"/><stop offset="1" stop-color="#f0c92c"/></radialGradient><radialGradient id="g" cx="25.2632" cy="63.8898" gradientTransform="matrix(1 0 0 -1 0 127.8898)" gradientUnits="userSpaceOnUse" r="71.5608"><stop offset=".6994" stop-color="#757575" stop-opacity="0"/><stop offset="1" stop-color="#fdf362"/></radialGradient><radialGradient id="h" cx="37.8161" cy="63.9954" gradientUnits="userSpaceOnUse" r="80.87"><stop offset=".6589" stop-color="#757575"/><stop offset=".8766" stop-color="#fdf362" stop-opacity="0"/></radialGradient><linearGradient id="i"><stop offset=".0061135" stop-color="#e0a800"/><stop offset=".6098" stop-color="#e0a800" stop-opacity=".1074"/><stop offset=".6825" stop-color="#e0a800" stop-opacity="0"/></linearGradient><radialGradient id="j" cx="147.2942" cy="742.7042" gradientTransform="matrix(.0682 .9977 1.0103 -.069 -656.7057 -51.9893)" gradientUnits="userSpaceOnUse" r="11.738" xlink:href="#i"/><radialGradient id="k" cx="138.7351" cy="-443.697" fx="137.9851" fy="-444.557" gradientTransform="matrix(.9964 .0852 .0775 -.9066 -.002959 -346.5323)" gradientUnits="userSpaceOnUse" r="14.343" xlink:href="#i"/><radialGradient id="l" cx="123.6971" cy="-402.3079" fx="123.3071" fy="-402.7549" gradientTransform="matrix(.9964 .0852 .0775 -.9066 .314 -350.2474)" gradientUnits="userSpaceOnUse" r="7.4702" xlink:href="#i"/><radialGradient id="m" cx="133.8791" cy="-463.7069" fx="133.2211" fy="-464.4569" gradientTransform="matrix(.9964 .0852 .0775 -.9066 -.157 -344.7354)" gradientUnits="userSpaceOnUse" r="12.604" xlink:href="#i"/><circle cx="64" cy="64" fill="url(#a)" r="60"/><path d="m36.4 83.4c-4 7.2-13.5 9.6-21.2 5.3s-10.6-13.6-6.6-20.8 13.5-9.6 21.2-5.3c7.6 4.3 10.6 13.6 6.6 20.8z" fill="url(#c)" opacity=".3"/><path d="m40.6 99.9c-1.2 4-5.4 6.2-9.4 4.9-3.9-1.2-6.1-5.4-4.9-9.4s5.4-6.2 9.4-4.9 6.1 5.4 4.9 9.4z" fill="url(#d)" opacity=".3"/><path d="m59.4 93c7.1.8 12.3 5.7 11.7 10.9s-6.8 8.8-13.9 7.9c-7.1-.8-12.3-5.7-11.7-10.9s6.8-8.8 13.9-7.9z" fill="url(#e)" opacity=".3"/><path d="m47.7 121.8 4.6-1c1.4-.3 2.7-.8 4-1.5l4.3-2.5 4.8-2.8c.9-.5 1.8-1.2 2.6-1.9l4-3.8 4.1-3.9c.7-.7 1.3-1.4 1.9-2.2l3.2-4.7 3.1-4.4c.7-.9 1.2-1.9 1.6-3l1.9-5.1 2.1-5.5c.3-.8.5-1.6.7-2.4l.8-4.8c.1-.7.2-1.4.2-2.1l.1-5.4c0-.5 0-1-.1-1.5l-.6-5.8c0-.4-.1-.7-.1-1.1l-1.2-6.4-.8-3.9c-.4-2.1-1.4-4-2.7-5.6l-.7-.9c-1.2-1.5-2.1-3.3-2.6-5.2l-.4-1.6c-.4-1.7-1.2-3.4-2.3-4.8l-2-2.6c-.5-.6-1-1.2-1.6-1.7l-3.1-3c-.8-.8-1.7-1.4-2.7-2l-3-1.6c-1.2-.7-2.3-1.5-3.3-2.5l-1.2-1.2c-1.6-1.7-3.6-2.9-5.8-3.6l-3.1-1c-.3-.1-.5-.2-.8-.3l-6-2.3c5.8-1.6 11.8-2.3 18-2.2 32 .8 58 27.1 58.4 59.1.5 33.5-26.6 60.9-60 60.9-5.6 0-11.1-.8-16.3-2.2z" fill="url(#f)"/><path d="m81.2 97.5-3.2 4.7c-.6.8-1.2 1.5-1.9 2.2l-4.1 3.9-4 3.8c-.8.7-1.7 1.4-2.6 1.9l-4.8 2.8-4.3 2.5c-1.3.7-2.6 1.2-4 1.5l-4.5 1c-25.3-7.1-43.8-30.3-43.8-57.8s18.5-50.7 43.7-57.8l5.9 2.3c.3.1.5.2.8.3l3.1 1c2.2.7 4.2 1.9 5.8 3.6l1.2 1.2c1 1 2.1 1.8 3.3 2.5l3 1.6c1 .6 1.9 1.2 2.7 2l3.1 3c.6.5 1.1 1.1 1.6 1.7l2 2.6c1.1 1.4 1.9 3.1 2.3 4.8l.4 1.6c.5 1.9 1.4 3.7 2.6 5.2l.7.9c1.3 1.6 2.3 3.5 2.7 5.6l.8 3.9 1.2 6.4c0 .4.1.7.1 1.1l.6 5.8c.1.5.1 1 .1 1.5l-.1 5.4c0 .7-.1 1.4-.2 2.1l-.8 4.8c-.2.8-.4 1.6-.7 2.4l-2.1 5.5-1.9 5.1c-.4 1.1-.9 2.1-1.6 3z" fill="url(#g)" opacity=".5"/><path d="m47.7 121.8 4.6-1c1.4-.3 2.7-.8 4-1.5l4.3-2.5 4.8-2.8c.9-.5 1.8-1.2 2.6-1.9l4-3.8 4.1-3.9c.7-.7 1.3-1.4 1.9-2.2l3.2-4.7 3.1-4.4c.7-.9 1.2-1.9 1.6-3l1.9-5.1 2.1-5.5c.3-.8.5-1.6.7-2.4l.8-4.8c.1-.7.2-1.4.2-2.1l.1-5.4c0-.5 0-1-.1-1.5l-.6-5.8c0-.4-.1-.7-.1-1.1l-1.2-6.4-.8-3.9c-.4-2.1-1.4-4-2.7-5.6l-.7-.9c-1.2-1.5-2.1-3.3-2.6-5.2l-.4-1.6c-.4-1.7-1.2-3.4-2.3-4.8l-2-2.6c-.5-.6-1-1.2-1.6-1.7l-3.1-3c-.8-.8-1.7-1.4-2.7-2l-3-1.6c-1.2-.7-2.3-1.5-3.3-2.5l-1.2-1.2c-1.6-1.7-3.6-2.9-5.8-3.6l-3.1-1c-.3-.1-.5-.2-.8-.3l-6-2.3c5.8-1.6 11.8-2.3 18-2.2 32 .8 58 27.1 58.4 59.1.5 33.5-26.6 60.9-60 60.9-5.6 0-11.1-.8-16.3-2.2z" fill="url(#h)" opacity=".5"/><path d="m114.2 45.9c-.1 5.5-4.7 9.8-10.3 9.7s-10-4.6-9.9-10.1 4.7-9.8 10.3-9.7 10 4.6 9.9 10.1z" fill="url(#j)"/><path d="m118.4 73.9c-.5 5.7-5.5 9.9-11.2 9.4s-9.9-5.5-9.4-11.2 5.5-9.9 11.2-9.4 9.9 5.5 9.4 11.2z" fill="url(#k)"/><path d="m98.2 26.1c-.2 3-2.8 5.2-5.8 4.9-2.9-.2-5.1-2.9-4.9-5.8s2.8-5.2 5.8-4.9 5.2 2.8 4.9 5.8z" fill="url(#l)"/><path d="m110.1 92.7c-.4 5-4.8 8.7-9.8 8.3s-8.7-4.8-8.2-9.8 4.8-8.7 9.8-8.3 8.7 4.8 8.2 9.8z" fill="url(#m)"/><path d="m64 8c30.9 0 56 25.1 56 56s-25.1 56-56 56-56-25.1-56-56 25.1-56 56-56m0-4c-33.1 0-60 26.9-60 60s26.9 60 60 60 60-26.9 60-60-26.9-60-60-60z" fill="#424242" opacity=".2"/></svg>